{
    "asset" : {
        "version" : "2.0",
        "generator" : "Khronos glTF Blender I/O v1.2.20"
    },
    "extensionsUsed" : [
        "KHR_materials_unlit"
    ],
    "scene" : 2,
    "scenes" : [
        {
            "name" : "event"
        },
        {
            "name" : "retry meny"
        },
        {
            "name" : "test lvl",
            "nodes" : [
                0
            ]
        }
    ],
    "nodes" : [
        {
            "name" : "Mega Dust R",
            "mesh" : 0,
            "scale" : [
                1,
                2,
                1
            ],
            "translation" : [
                -2.0579276084899902,
                0.9068917036056519,
                2.9562230110168457
            ]
        }
    ],
    "materials" : [
        {
            "extensions" : {
                "KHR_materials_unlit" : {}
            },
            "name" : "Dust",
            "pbrMetallicRoughness" : {
                "baseColorTexture" : {
                    "texCoord" : 0,
                    "index" : 0
                }
            }
        }
    ],
    "meshes" : [
        {
            "name" : "Plane.008",
            "primitives" : [
                {
                    "material" : 0,
                    "attributes" : {
                        "POSITION" : 0,
                        "TEXCOORD_0" : 1,
                        "NORMAL" : 2
                    },
                    "indices" : 3
                }
            ]
        }
    ],
    "textures" : [
        {
            "source" : 0,
            "sampler" : 0
        }
    ],
    "images" : [
        {
            "mimeType" : "image/png",
            "name" : "dust",
            "bufferView" : 4
        }
    ],
    "accessors" : [
        {
            "max" : [
                -0.02383298985660076,
                1.9380606412887573,
                2.6434504985809326
            ],
            "min" : [
                -0.36524438858032227,
                -0.3638707101345062,
                -2.709379196166992
            ],
            "count" : 8,
            "componentType" : 5126,
            "type" : "VEC3",
            "bufferView" : 0
        },
        {
            "count" : 8,
            "componentType" : 5126,
            "type" : "VEC2",
            "bufferView" : 1
        },
        {
            "count" : 8,
            "componentType" : 5126,
            "type" : "VEC3",
            "bufferView" : 2
        },
        {
            "count" : 12,
            "componentType" : 5123,
            "type" : "SCALAR",
            "bufferView" : 3
        }
    ],
    "bufferViews" : [
        {
            "buffer" : 0,
            "byteOffset" : 0,
            "byteLength" : 96
        },
        {
            "buffer" : 0,
            "byteOffset" : 96,
            "byteLength" : 64
        },
        {
            "buffer" : 0,
            "byteOffset" : 160,
            "byteLength" : 96
        },
        {
            "buffer" : 0,
            "byteOffset" : 256,
            "byteLength" : 24
        },
        {
            "buffer" : 0,
            "byteOffset" : 280,
            "byteLength" : 134134
        }
    ],
    "samplers" : [
        {
            "minFilter" : 9986,
            "wrapS" : 10497,
            "magFilter" : 9729,
            "wrapT" : 10497
        }
    ],
    "buffers" : [
        {
            "uri" : "data:application/octet-stream;base64,",
            "byteLength" : 134416
        }
    ]
}
