{
    "asset" : {
        "generator" : "Khronos glTF Blender I/O v3.2.43",
        "version" : "2.0"
    },
    "scene" : 2,
    "scenes" : [
        {
            "name" : "event",
            "nodes" : [
                0
            ]
        },
        {
            "name" : "retry meny",
            "nodes" : [
                1
            ]
        },
        {
            "name" : "test lvl",
            "nodes" : [
                2,
                3,
                4
            ]
        }
    ],
    "nodes" : [
        {
            "mesh" : 0,
            "name" : "arrows L",
            "rotation" : [
                0,
                0.7071068286895752,
                0,
                0.7071068286895752
            ],
            "scale" : [
                1.4190235137939453,
                1.4190235137939453,
                1.4190235137939453
            ],
            "translation" : [
                -16.68757438659668,
                0,
                6.906949996948242
            ]
        },
        {
            "mesh" : 1,
            "name" : "Retry Button",
            "scale" : [
                1.5117641687393188,
                1.5117641687393188,
                1.5117641687393188
            ],
            "translation" : [
                0,
                0,
                -0.40966132283210754
            ]
        },
        {
            "mesh" : 2,
            "name" : "kick3",
            "rotation" : [
                0,
                0,
                -0.7071066498756409,
                0.70710688829422
            ],
            "scale" : [
                1.5082685947418213,
                1.5082685947418213,
                1.2678817510604858
            ],
            "translation" : [
                -2.211495876312256,
                0.9555448889732361,
                12.435853958129883
            ]
        },
        {
            "mesh" : 3,
            "name" : "kick2",
            "rotation" : [
                0,
                0,
                -0.7071066498756409,
                0.70710688829422
            ],
            "scale" : [
                1.5082685947418213,
                1.5082685947418213,
                1.2678817510604858
            ],
            "translation" : [
                -2.211495876312256,
                0.9555448889732361,
                9.284473419189453
            ]
        },
        {
            "mesh" : 4,
            "name" : "kick1",
            "rotation" : [
                0,
                0,
                -0.7071066498756409,
                0.70710688829422
            ],
            "scale" : [
                1.5082685947418213,
                1.5082685947418213,
                1.5082685947418213
            ],
            "translation" : [
                -2.211495876312256,
                0.9555448889732361,
                6.154876708984375
            ]
        }
    ],
    "materials" : [
        {
            "doubleSided" : true,
            "name" : "teeth",
            "pbrMetallicRoughness" : {
                "baseColorTexture" : {
                    "index" : 0
                },
                "metallicFactor" : 0,
                "roughnessFactor" : 0.5
            }
        },
        {
            "doubleSided" : true,
            "name" : "HUD retry",
            "pbrMetallicRoughness" : {
                "baseColorFactor" : [
                    0.800000011920929,
                    0.800000011920929,
                    0.800000011920929,
                    1
                ],
                "metallicFactor" : 0,
                "roughnessFactor" : 0.5
            }
        },
        {
            "doubleSided" : true,
            "name" : "Kick3",
            "pbrMetallicRoughness" : {
                "baseColorTexture" : {
                    "index" : 1
                },
                "metallicFactor" : 0,
                "roughnessFactor" : 0.5
            }
        },
        {
            "doubleSided" : true,
            "name" : "kick2",
            "pbrMetallicRoughness" : {
                "baseColorTexture" : {
                    "index" : 2
                },
                "metallicFactor" : 0,
                "roughnessFactor" : 0.5
            }
        },
        {
            "doubleSided" : true,
            "name" : "kick1",
            "pbrMetallicRoughness" : {
                "baseColorTexture" : {
                    "index" : 3
                },
                "metallicFactor" : 0,
                "roughnessFactor" : 0.5
            }
        }
    ],
    "meshes" : [
        {
            "name" : "arrows L",
            "primitives" : [
                {
                    "attributes" : {
                        "POSITION" : 0,
                        "NORMAL" : 1,
                        "TEXCOORD_0" : 2
                    },
                    "indices" : 3,
                    "material" : 0
                }
            ]
        },
        {
            "name" : "Retry Button",
            "primitives" : [
                {
                    "attributes" : {
                        "POSITION" : 4,
                        "NORMAL" : 5,
                        "TEXCOORD_0" : 6
                    },
                    "indices" : 7,
                    "material" : 1
                }
            ]
        },
        {
            "name" : "kick3",
            "primitives" : [
                {
                    "attributes" : {
                        "POSITION" : 8,
                        "NORMAL" : 9,
                        "TEXCOORD_0" : 10
                    },
                    "indices" : 11,
                    "material" : 2
                }
            ]
        },
        {
            "name" : "kick2",
            "primitives" : [
                {
                    "attributes" : {
                        "POSITION" : 12,
                        "NORMAL" : 13,
                        "TEXCOORD_0" : 14
                    },
                    "indices" : 11,
                    "material" : 3
                }
            ]
        },
        {
            "name" : "kick1",
            "primitives" : [
                {
                    "attributes" : {
                        "POSITION" : 15,
                        "NORMAL" : 16,
                        "TEXCOORD_0" : 17
                    },
                    "indices" : 11,
                    "material" : 4
                }
            ]
        }
    ],
    "textures" : [
        {
            "sampler" : 0,
            "source" : 0
        },
        {
            "sampler" : 0,
            "source" : 1
        },
        {
            "sampler" : 0,
            "source" : 2
        },
        {
            "sampler" : 0,
            "source" : 3
        }
    ],
    "images" : [
        {
            "bufferView" : 4,
            "mimeType" : "image/png",
            "name" : "tooth"
        },
        {
            "bufferView" : 13,
            "mimeType" : "image/png",
            "name" : "kick1"
        },
        {
            "bufferView" : 17,
            "mimeType" : "image/png",
            "name" : "kick2"
        },
        {
            "bufferView" : 21,
            "mimeType" : "image/png",
            "name" : "kick"
        }
    ],
    "accessors" : [
        {
            "bufferView" : 0,
            "componentType" : 5126,
            "count" : 28,
            "max" : [
                1.2930558919906616,
                -0.38375145196914673,
                -2.617375612258911
            ],
            "min" : [
                -1.2930546998977661,
                -0.46078991889953613,
                -5.447652816772461
            ],
            "type" : "VEC3"
        },
        {
            "bufferView" : 1,
            "componentType" : 5126,
            "count" : 28,
            "type" : "VEC3"
        },
        {
            "bufferView" : 2,
            "componentType" : 5126,
            "count" : 28,
            "type" : "VEC2"
        },
        {
            "bufferView" : 3,
            "componentType" : 5123,
            "count" : 42,
            "type" : "SCALAR"
        },
        {
            "bufferView" : 5,
            "componentType" : 5126,
            "count" : 4,
            "max" : [
                0.5912275910377502,
                0.005179209169000387,
                0.2269800901412964
            ],
            "min" : [
                -0.5912275910377502,
                0.005179209169000387,
                -0.2269800305366516
            ],
            "type" : "VEC3"
        },
        {
            "bufferView" : 6,
            "componentType" : 5126,
            "count" : 4,
            "type" : "VEC3"
        },
        {
            "bufferView" : 7,
            "componentType" : 5126,
            "count" : 4,
            "type" : "VEC2"
        },
        {
            "bufferView" : 8,
            "componentType" : 5123,
            "count" : 6,
            "type" : "SCALAR"
        },
        {
            "bufferView" : 9,
            "componentType" : 5126,
            "count" : 4,
            "max" : [
                1,
                0,
                1
            ],
            "min" : [
                -1,
                0,
                -1
            ],
            "type" : "VEC3"
        },
        {
            "bufferView" : 10,
            "componentType" : 5126,
            "count" : 4,
            "type" : "VEC3"
        },
        {
            "bufferView" : 11,
            "componentType" : 5126,
            "count" : 4,
            "type" : "VEC2"
        },
        {
            "bufferView" : 12,
            "componentType" : 5123,
            "count" : 6,
            "type" : "SCALAR"
        },
        {
            "bufferView" : 14,
            "componentType" : 5126,
            "count" : 4,
            "max" : [
                1,
                0,
                1
            ],
            "min" : [
                -1,
                0,
                -1
            ],
            "type" : "VEC3"
        },
        {
            "bufferView" : 15,
            "componentType" : 5126,
            "count" : 4,
            "type" : "VEC3"
        },
        {
            "bufferView" : 16,
            "componentType" : 5126,
            "count" : 4,
            "type" : "VEC2"
        },
        {
            "bufferView" : 18,
            "componentType" : 5126,
            "count" : 4,
            "max" : [
                1,
                0,
                1
            ],
            "min" : [
                -1,
                0,
                -1
            ],
            "type" : "VEC3"
        },
        {
            "bufferView" : 19,
            "componentType" : 5126,
            "count" : 4,
            "type" : "VEC3"
        },
        {
            "bufferView" : 20,
            "componentType" : 5126,
            "count" : 4,
            "type" : "VEC2"
        }
    ],
    "bufferViews" : [
        {
            "buffer" : 0,
            "byteLength" : 336,
            "byteOffset" : 0
        },
        {
            "buffer" : 0,
            "byteLength" : 336,
            "byteOffset" : 336
        },
        {
            "buffer" : 0,
            "byteLength" : 224,
            "byteOffset" : 672
        },
        {
            "buffer" : 0,
            "byteLength" : 84,
            "byteOffset" : 896
        },
        {
            "buffer" : 0,
            "byteLength" : 5182,
            "byteOffset" : 980
        },
        {
            "buffer" : 0,
            "byteLength" : 48,
            "byteOffset" : 6164
        },
        {
            "buffer" : 0,
            "byteLength" : 48,
            "byteOffset" : 6212
        },
        {
            "buffer" : 0,
            "byteLength" : 32,
            "byteOffset" : 6260
        },
        {
            "buffer" : 0,
            "byteLength" : 12,
            "byteOffset" : 6292
        },
        {
            "buffer" : 0,
            "byteLength" : 48,
            "byteOffset" : 6304
        },
        {
            "buffer" : 0,
            "byteLength" : 48,
            "byteOffset" : 6352
        },
        {
            "buffer" : 0,
            "byteLength" : 32,
            "byteOffset" : 6400
        },
        {
            "buffer" : 0,
            "byteLength" : 12,
            "byteOffset" : 6432
        },
        {
            "buffer" : 0,
            "byteLength" : 28307,
            "byteOffset" : 6444
        },
        {
            "buffer" : 0,
            "byteLength" : 48,
            "byteOffset" : 34752
        },
        {
            "buffer" : 0,
            "byteLength" : 48,
            "byteOffset" : 34800
        },
        {
            "buffer" : 0,
            "byteLength" : 32,
            "byteOffset" : 34848
        },
        {
            "buffer" : 0,
            "byteLength" : 15731,
            "byteOffset" : 34880
        },
        {
            "buffer" : 0,
            "byteLength" : 48,
            "byteOffset" : 50612
        },
        {
            "buffer" : 0,
            "byteLength" : 48,
            "byteOffset" : 50660
        },
        {
            "buffer" : 0,
            "byteLength" : 32,
            "byteOffset" : 50708
        },
        {
            "buffer" : 0,
            "byteLength" : 11518,
            "byteOffset" : 50740
        }
    ],
    "samplers" : [
        {
            "magFilter" : 9729,
            "minFilter" : 9987
        }
    ],
    "buffers" : [
        {
            "byteLength" : 62260,
            "uri" : "data:application/octet-stream;base64,"
        }
    ]
}
