{
    "asset" : {
        "generator" : "Khronos glTF Blender I/O v3.2.43",
        "version" : "2.0"
    },
    "scene" : 2,
    "scenes" : [
        {
            "name" : "event",
            "nodes" : [
                0
            ]
        },
        {
            "name" : "retry meny",
            "nodes" : [
                1
            ]
        },
        {
            "name" : "test lvl",
            "nodes" : [
                2,
                3
            ]
        }
    ],
    "nodes" : [
        {
            "mesh" : 0,
            "name" : "arrows L",
            "rotation" : [
                0,
                0.7071068286895752,
                0,
                0.7071068286895752
            ],
            "scale" : [
                1.4190235137939453,
                1.4190235137939453,
                1.4190235137939453
            ],
            "translation" : [
                -16.68757438659668,
                0,
                6.906949996948242
            ]
        },
        {
            "mesh" : 1,
            "name" : "Retry Button",
            "scale" : [
                1.5117641687393188,
                1.5117641687393188,
                1.5117641687393188
            ],
            "translation" : [
                0,
                0,
                -0.40966132283210754
            ]
        },
        {
            "mesh" : 2,
            "name" : "fire LL",
            "translation" : [
                1.2449413537979126,
                -5.297078609466553,
                12.66812515258789
            ]
        },
        {
            "mesh" : 3,
            "name" : "Barrel",
            "scale" : [
                0.3332817852497101,
                0.3332817852497101,
                0.3332817852497101
            ],
            "translation" : [
                -2.3461599349975586,
                0.7573957443237305,
                12.342556953430176
            ]
        }
    ],
    "animations" : [
        {
            "channels" : [
                {
                    "sampler" : 0,
                    "target" : {
                        "node" : 0,
                        "path" : "translation"
                    }
                },
                {
                    "sampler" : 1,
                    "target" : {
                        "node" : 0,
                        "path" : "rotation"
                    }
                },
                {
                    "sampler" : 2,
                    "target" : {
                        "node" : 0,
                        "path" : "scale"
                    }
                }
            ],
            "name" : "arrows L",
            "samplers" : [
                {
                    "input" : 16,
                    "interpolation" : "LINEAR",
                    "output" : 17
                },
                {
                    "input" : 16,
                    "interpolation" : "LINEAR",
                    "output" : 18
                },
                {
                    "input" : 16,
                    "interpolation" : "LINEAR",
                    "output" : 19
                }
            ]
        },
        {
            "channels" : [
                {
                    "sampler" : 0,
                    "target" : {
                        "node" : 1,
                        "path" : "scale"
                    }
                }
            ],
            "name" : "Retry ButtonAction",
            "samplers" : [
                {
                    "input" : 20,
                    "interpolation" : "LINEAR",
                    "output" : 21
                }
            ]
        },
        {
            "channels" : [
                {
                    "sampler" : 0,
                    "target" : {
                        "node" : 2,
                        "path" : "translation"
                    }
                },
                {
                    "sampler" : 1,
                    "target" : {
                        "node" : 2,
                        "path" : "rotation"
                    }
                },
                {
                    "sampler" : 2,
                    "target" : {
                        "node" : 2,
                        "path" : "scale"
                    }
                }
            ],
            "name" : "fire LL",
            "samplers" : [
                {
                    "input" : 16,
                    "interpolation" : "LINEAR",
                    "output" : 22
                },
                {
                    "input" : 16,
                    "interpolation" : "LINEAR",
                    "output" : 23
                },
                {
                    "input" : 16,
                    "interpolation" : "LINEAR",
                    "output" : 24
                }
            ]
        },
        {
            "channels" : [
                {
                    "sampler" : 0,
                    "target" : {
                        "node" : 3,
                        "path" : "translation"
                    }
                },
                {
                    "sampler" : 1,
                    "target" : {
                        "node" : 3,
                        "path" : "rotation"
                    }
                },
                {
                    "sampler" : 2,
                    "target" : {
                        "node" : 3,
                        "path" : "scale"
                    }
                }
            ],
            "name" : "Barrel",
            "samplers" : [
                {
                    "input" : 16,
                    "interpolation" : "LINEAR",
                    "output" : 25
                },
                {
                    "input" : 16,
                    "interpolation" : "LINEAR",
                    "output" : 26
                },
                {
                    "input" : 16,
                    "interpolation" : "LINEAR",
                    "output" : 27
                }
            ]
        }
    ],
    "materials" : [
        {
            "doubleSided" : true,
            "name" : "teeth",
            "pbrMetallicRoughness" : {
                "baseColorFactor" : [
                    0.800000011920929,
                    0.7507500052452087,
                    0.5362290143966675,
                    1
                ],
                "metallicFactor" : 0,
                "roughnessFactor" : 0.5
            }
        },
        {
            "doubleSided" : true,
            "name" : "HUD retry",
            "pbrMetallicRoughness" : {
                "baseColorFactor" : [
                    0.800000011920929,
                    0.800000011920929,
                    0.800000011920929,
                    1
                ],
                "metallicFactor" : 0,
                "roughnessFactor" : 0.5
            }
        },
        {
            "doubleSided" : true,
            "name" : "fire",
            "pbrMetallicRoughness" : {
                "baseColorTexture" : {
                    "index" : 0
                },
                "metallicFactor" : 0,
                "roughnessFactor" : 0.5
            }
        },
        {
            "doubleSided" : true,
            "name" : "Barrel",
            "normalTexture" : {
                "index" : 1,
                "scale" : 0.40000003576278687
            },
            "pbrMetallicRoughness" : {
                "baseColorTexture" : {
                    "index" : 2
                },
                "metallicFactor" : 0,
                "roughnessFactor" : 0.5
            }
        }
    ],
    "meshes" : [
        {
            "name" : "arrows L",
            "primitives" : [
                {
                    "attributes" : {
                        "POSITION" : 0,
                        "NORMAL" : 1,
                        "TEXCOORD_0" : 2
                    },
                    "indices" : 3,
                    "material" : 0
                }
            ]
        },
        {
            "name" : "Retry Button",
            "primitives" : [
                {
                    "attributes" : {
                        "POSITION" : 4,
                        "NORMAL" : 5,
                        "TEXCOORD_0" : 6
                    },
                    "indices" : 7,
                    "material" : 1
                }
            ]
        },
        {
            "name" : "fire RR",
            "primitives" : [
                {
                    "attributes" : {
                        "POSITION" : 8,
                        "NORMAL" : 9,
                        "TEXCOORD_0" : 10
                    },
                    "indices" : 11,
                    "material" : 2
                }
            ]
        },
        {
            "name" : "Barrel",
            "primitives" : [
                {
                    "attributes" : {
                        "POSITION" : 12,
                        "NORMAL" : 13,
                        "TEXCOORD_0" : 14
                    },
                    "indices" : 15,
                    "material" : 3
                }
            ]
        }
    ],
    "textures" : [
        {
            "sampler" : 0,
            "source" : 0
        },
        {
            "sampler" : 0,
            "source" : 1
        },
        {
            "sampler" : 0,
            "source" : 1
        }
    ],
    "images" : [
        {
            "bufferView" : 12,
            "mimeType" : "image/png",
            "name" : "fire_sprites"
        },
        {
            "bufferView" : 17,
            "mimeType" : "image/png",
            "name" : "Barrel_UVs"
        }
    ],
    "accessors" : [
        {
            "bufferView" : 0,
            "componentType" : 5126,
            "count" : 28,
            "max" : [
                1.2930558919906616,
                -0.38375145196914673,
                -2.617375612258911
            ],
            "min" : [
                -1.2930546998977661,
                -0.46078991889953613,
                -5.447652816772461
            ],
            "type" : "VEC3"
        },
        {
            "bufferView" : 1,
            "componentType" : 5126,
            "count" : 28,
            "type" : "VEC3"
        },
        {
            "bufferView" : 2,
            "componentType" : 5126,
            "count" : 28,
            "type" : "VEC2"
        },
        {
            "bufferView" : 3,
            "componentType" : 5123,
            "count" : 42,
            "type" : "SCALAR"
        },
        {
            "bufferView" : 4,
            "componentType" : 5126,
            "count" : 4,
            "max" : [
                0.5912275910377502,
                0.005179209169000387,
                0.2269800901412964
            ],
            "min" : [
                -0.5912275910377502,
                0.005179209169000387,
                -0.2269800305366516
            ],
            "type" : "VEC3"
        },
        {
            "bufferView" : 5,
            "componentType" : 5126,
            "count" : 4,
            "type" : "VEC3"
        },
        {
            "bufferView" : 6,
            "componentType" : 5126,
            "count" : 4,
            "type" : "VEC2"
        },
        {
            "bufferView" : 7,
            "componentType" : 5123,
            "count" : 6,
            "type" : "SCALAR"
        },
        {
            "bufferView" : 8,
            "componentType" : 5126,
            "count" : 16,
            "max" : [
                -2.344007730484009,
                9.001239776611328,
                9.87968921661377
            ],
            "min" : [
                -5.327678203582764,
                4.696662902832031,
                1.760815143585205
            ],
            "type" : "VEC3"
        },
        {
            "bufferView" : 9,
            "componentType" : 5126,
            "count" : 16,
            "type" : "VEC3"
        },
        {
            "bufferView" : 10,
            "componentType" : 5126,
            "count" : 16,
            "type" : "VEC2"
        },
        {
            "bufferView" : 11,
            "componentType" : 5123,
            "count" : 24,
            "type" : "SCALAR"
        },
        {
            "bufferView" : 13,
            "componentType" : 5126,
            "count" : 147,
            "max" : [
                1.3485862016677856,
                1.5,
                1.3485862016677856
            ],
            "min" : [
                -1.3485862016677856,
                -1.5,
                -1.3485863208770752
            ],
            "type" : "VEC3"
        },
        {
            "bufferView" : 14,
            "componentType" : 5126,
            "count" : 147,
            "type" : "VEC3"
        },
        {
            "bufferView" : 15,
            "componentType" : 5126,
            "count" : 147,
            "type" : "VEC2"
        },
        {
            "bufferView" : 16,
            "componentType" : 5123,
            "count" : 612,
            "type" : "SCALAR"
        },
        {
            "bufferView" : 18,
            "componentType" : 5126,
            "count" : 3550,
            "max" : [
                59.13333333333333
            ],
            "min" : [
                -0.016666666666666666
            ],
            "type" : "SCALAR"
        },
        {
            "bufferView" : 19,
            "componentType" : 5126,
            "count" : 3550,
            "type" : "VEC3"
        },
        {
            "bufferView" : 20,
            "componentType" : 5126,
            "count" : 3550,
            "type" : "VEC4"
        },
        {
            "bufferView" : 21,
            "componentType" : 5126,
            "count" : 3550,
            "type" : "VEC3"
        },
        {
            "bufferView" : 22,
            "componentType" : 5126,
            "count" : 21,
            "max" : [
                0.8333333333333334
            ],
            "min" : [
                0
            ],
            "type" : "SCALAR"
        },
        {
            "bufferView" : 23,
            "componentType" : 5126,
            "count" : 21,
            "type" : "VEC3"
        },
        {
            "bufferView" : 24,
            "componentType" : 5126,
            "count" : 3550,
            "type" : "VEC3"
        },
        {
            "bufferView" : 25,
            "componentType" : 5126,
            "count" : 3550,
            "type" : "VEC4"
        },
        {
            "bufferView" : 26,
            "componentType" : 5126,
            "count" : 3550,
            "type" : "VEC3"
        },
        {
            "bufferView" : 27,
            "componentType" : 5126,
            "count" : 3550,
            "type" : "VEC3"
        },
        {
            "bufferView" : 28,
            "componentType" : 5126,
            "count" : 3550,
            "type" : "VEC4"
        },
        {
            "bufferView" : 29,
            "componentType" : 5126,
            "count" : 3550,
            "type" : "VEC3"
        }
    ],
    "bufferViews" : [
        {
            "buffer" : 0,
            "byteLength" : 336,
            "byteOffset" : 0
        },
        {
            "buffer" : 0,
            "byteLength" : 336,
            "byteOffset" : 336
        },
        {
            "buffer" : 0,
            "byteLength" : 224,
            "byteOffset" : 672
        },
        {
            "buffer" : 0,
            "byteLength" : 84,
            "byteOffset" : 896
        },
        {
            "buffer" : 0,
            "byteLength" : 48,
            "byteOffset" : 980
        },
        {
            "buffer" : 0,
            "byteLength" : 48,
            "byteOffset" : 1028
        },
        {
            "buffer" : 0,
            "byteLength" : 32,
            "byteOffset" : 1076
        },
        {
            "buffer" : 0,
            "byteLength" : 12,
            "byteOffset" : 1108
        },
        {
            "buffer" : 0,
            "byteLength" : 192,
            "byteOffset" : 1120
        },
        {
            "buffer" : 0,
            "byteLength" : 192,
            "byteOffset" : 1312
        },
        {
            "buffer" : 0,
            "byteLength" : 128,
            "byteOffset" : 1504
        },
        {
            "buffer" : 0,
            "byteLength" : 48,
            "byteOffset" : 1632
        },
        {
            "buffer" : 0,
            "byteLength" : 1609345,
            "byteOffset" : 1680
        },
        {
            "buffer" : 0,
            "byteLength" : 1764,
            "byteOffset" : 1611028
        },
        {
            "buffer" : 0,
            "byteLength" : 1764,
            "byteOffset" : 1612792
        },
        {
            "buffer" : 0,
            "byteLength" : 1176,
            "byteOffset" : 1614556
        },
        {
            "buffer" : 0,
            "byteLength" : 1224,
            "byteOffset" : 1615732
        },
        {
            "buffer" : 0,
            "byteLength" : 322415,
            "byteOffset" : 1616956
        },
        {
            "buffer" : 0,
            "byteLength" : 14200,
            "byteOffset" : 1939372
        },
        {
            "buffer" : 0,
            "byteLength" : 42600,
            "byteOffset" : 1953572
        },
        {
            "buffer" : 0,
            "byteLength" : 56800,
            "byteOffset" : 1996172
        },
        {
            "buffer" : 0,
            "byteLength" : 42600,
            "byteOffset" : 2052972
        },
        {
            "buffer" : 0,
            "byteLength" : 84,
            "byteOffset" : 2095572
        },
        {
            "buffer" : 0,
            "byteLength" : 252,
            "byteOffset" : 2095656
        },
        {
            "buffer" : 0,
            "byteLength" : 42600,
            "byteOffset" : 2095908
        },
        {
            "buffer" : 0,
            "byteLength" : 56800,
            "byteOffset" : 2138508
        },
        {
            "buffer" : 0,
            "byteLength" : 42600,
            "byteOffset" : 2195308
        },
        {
            "buffer" : 0,
            "byteLength" : 42600,
            "byteOffset" : 2237908
        },
        {
            "buffer" : 0,
            "byteLength" : 56800,
            "byteOffset" : 2280508
        },
        {
            "buffer" : 0,
            "byteLength" : 42600,
            "byteOffset" : 2337308
        }
    ],
    "samplers" : [
        {
            "magFilter" : 9729,
            "minFilter" : 9987
        }
    ],
    "buffers" : [
        {
            "byteLength" : 2379908,
            "uri" : "data:application/octet-stream;base64,"
        }
    ]
}
