{
    "asset" : {
        "generator" : "Khronos glTF Blender I/O v3.2.43",
        "version" : "2.0"
    },
    "scene" : 2,
    "scenes" : [
        {
            "name" : "event",
            "nodes" : [
                0
            ]
        },
        {
            "name" : "retry meny",
            "nodes" : [
                1
            ]
        },
        {
            "name" : "test lvl",
            "nodes" : [
                2
            ]
        }
    ],
    "nodes" : [
        {
            "mesh" : 0,
            "name" : "arrows L",
            "rotation" : [
                0,
                0.7071068286895752,
                0,
                0.7071068286895752
            ],
            "scale" : [
                1.4190235137939453,
                1.4190235137939453,
                1.4190235137939453
            ],
            "translation" : [
                -16.68757438659668,
                0,
                6.906949996948242
            ]
        },
        {
            "mesh" : 1,
            "name" : "Retry Button",
            "translation" : [
                0,
                0,
                -0.40966132283210754
            ]
        },
        {
            "mesh" : 2,
            "name" : "Platform",
            "rotation" : [
                0.5168702602386475,
                0.5091894865036011,
                -0.616778552532196,
                0.3052138388156891
            ],
            "scale" : [
                1.0647454261779785,
                1.064745545387268,
                1.064745545387268
            ],
            "translation" : [
                -2.106293201446533,
                3.558256149291992,
                7.3050360679626465
            ]
        }
    ],
    "materials" : [
        {
            "doubleSided" : true,
            "name" : "teeth",
            "pbrMetallicRoughness" : {
                "baseColorFactor" : [
                    0.800000011920929,
                    0.7507500052452087,
                    0.5362290143966675,
                    1
                ],
                "metallicFactor" : 0,
                "roughnessFactor" : 0.5
            }
        },
        {
            "doubleSided" : true,
            "name" : "HUD retry",
            "pbrMetallicRoughness" : {
                "baseColorFactor" : [
                    0.800000011920929,
                    0.800000011920929,
                    0.800000011920929,
                    1
                ],
                "metallicFactor" : 0,
                "roughnessFactor" : 0.5
            }
        },
        {
            "doubleSided" : true,
            "name" : "Skull",
            "normalTexture" : {
                "index" : 0,
                "scale" : 0.30000001192092896
            },
            "pbrMetallicRoughness" : {
                "baseColorTexture" : {
                    "index" : 1
                },
                "metallicFactor" : 0,
                "roughnessFactor" : 0.5
            }
        },
        {
            "doubleSided" : true,
            "name" : "Wood",
            "normalTexture" : {
                "index" : 2,
                "scale" : 0.9900000095367432
            },
            "pbrMetallicRoughness" : {
                "baseColorTexture" : {
                    "index" : 3
                },
                "metallicFactor" : 0,
                "roughnessFactor" : 0.5
            }
        }
    ],
    "meshes" : [
        {
            "name" : "arrows L",
            "primitives" : [
                {
                    "attributes" : {
                        "POSITION" : 0,
                        "NORMAL" : 1,
                        "TEXCOORD_0" : 2
                    },
                    "indices" : 3,
                    "material" : 0
                }
            ]
        },
        {
            "name" : "Retry Button",
            "primitives" : [
                {
                    "attributes" : {
                        "POSITION" : 4,
                        "NORMAL" : 5,
                        "TEXCOORD_0" : 6
                    },
                    "indices" : 7,
                    "material" : 1
                }
            ]
        },
        {
            "name" : "area",
            "primitives" : [
                {
                    "attributes" : {
                        "POSITION" : 8,
                        "NORMAL" : 9,
                        "TEXCOORD_0" : 10
                    },
                    "indices" : 11,
                    "material" : 2
                },
                {
                    "attributes" : {
                        "POSITION" : 12,
                        "NORMAL" : 13,
                        "TEXCOORD_0" : 14
                    },
                    "indices" : 15,
                    "material" : 3
                }
            ]
        }
    ],
    "textures" : [
        {
            "sampler" : 0,
            "source" : 0
        },
        {
            "sampler" : 0,
            "source" : 0
        },
        {
            "sampler" : 0,
            "source" : 1
        },
        {
            "sampler" : 0,
            "source" : 1
        }
    ],
    "images" : [
        {
            "bufferView" : 12,
            "mimeType" : "image/png",
            "name" : "sky"
        },
        {
            "bufferView" : 17,
            "mimeType" : "image/jpeg",
            "name" : "wood"
        }
    ],
    "accessors" : [
        {
            "bufferView" : 0,
            "componentType" : 5126,
            "count" : 28,
            "max" : [
                1.2930558919906616,
                -0.38375145196914673,
                -2.617375612258911
            ],
            "min" : [
                -1.2930546998977661,
                -0.46078991889953613,
                -5.447652816772461
            ],
            "type" : "VEC3"
        },
        {
            "bufferView" : 1,
            "componentType" : 5126,
            "count" : 28,
            "type" : "VEC3"
        },
        {
            "bufferView" : 2,
            "componentType" : 5126,
            "count" : 28,
            "type" : "VEC2"
        },
        {
            "bufferView" : 3,
            "componentType" : 5123,
            "count" : 42,
            "type" : "SCALAR"
        },
        {
            "bufferView" : 4,
            "componentType" : 5126,
            "count" : 4,
            "max" : [
                0.5912275910377502,
                0.005179209169000387,
                0.2269800901412964
            ],
            "min" : [
                -0.5912275910377502,
                0.005179209169000387,
                -0.2269800305366516
            ],
            "type" : "VEC3"
        },
        {
            "bufferView" : 5,
            "componentType" : 5126,
            "count" : 4,
            "type" : "VEC3"
        },
        {
            "bufferView" : 6,
            "componentType" : 5126,
            "count" : 4,
            "type" : "VEC2"
        },
        {
            "bufferView" : 7,
            "componentType" : 5123,
            "count" : 6,
            "type" : "SCALAR"
        },
        {
            "bufferView" : 8,
            "componentType" : 5126,
            "count" : 1036,
            "max" : [
                12.826650619506836,
                5.995401382446289,
                4.146702766418457
            ],
            "min" : [
                -2.0141777992248535,
                1.1434862613677979,
                2.1161980628967285
            ],
            "type" : "VEC3"
        },
        {
            "bufferView" : 9,
            "componentType" : 5126,
            "count" : 1036,
            "type" : "VEC3"
        },
        {
            "bufferView" : 10,
            "componentType" : 5126,
            "count" : 1036,
            "type" : "VEC2"
        },
        {
            "bufferView" : 11,
            "componentType" : 5123,
            "count" : 5787,
            "type" : "SCALAR"
        },
        {
            "bufferView" : 13,
            "componentType" : 5126,
            "count" : 3896,
            "max" : [
                17.812461853027344,
                8.665623664855957,
                11.314451217651367
            ],
            "min" : [
                -16.816144943237305,
                -8.470294952392578,
                -6.728142261505127
            ],
            "type" : "VEC3"
        },
        {
            "bufferView" : 14,
            "componentType" : 5126,
            "count" : 3896,
            "type" : "VEC3"
        },
        {
            "bufferView" : 15,
            "componentType" : 5126,
            "count" : 3896,
            "type" : "VEC2"
        },
        {
            "bufferView" : 16,
            "componentType" : 5123,
            "count" : 5526,
            "type" : "SCALAR"
        }
    ],
    "bufferViews" : [
        {
            "buffer" : 0,
            "byteLength" : 336,
            "byteOffset" : 0
        },
        {
            "buffer" : 0,
            "byteLength" : 336,
            "byteOffset" : 336
        },
        {
            "buffer" : 0,
            "byteLength" : 224,
            "byteOffset" : 672
        },
        {
            "buffer" : 0,
            "byteLength" : 84,
            "byteOffset" : 896
        },
        {
            "buffer" : 0,
            "byteLength" : 48,
            "byteOffset" : 980
        },
        {
            "buffer" : 0,
            "byteLength" : 48,
            "byteOffset" : 1028
        },
        {
            "buffer" : 0,
            "byteLength" : 32,
            "byteOffset" : 1076
        },
        {
            "buffer" : 0,
            "byteLength" : 12,
            "byteOffset" : 1108
        },
        {
            "buffer" : 0,
            "byteLength" : 12432,
            "byteOffset" : 1120
        },
        {
            "buffer" : 0,
            "byteLength" : 12432,
            "byteOffset" : 13552
        },
        {
            "buffer" : 0,
            "byteLength" : 8288,
            "byteOffset" : 25984
        },
        {
            "buffer" : 0,
            "byteLength" : 11574,
            "byteOffset" : 34272
        },
        {
            "buffer" : 0,
            "byteLength" : 459772,
            "byteOffset" : 45848
        },
        {
            "buffer" : 0,
            "byteLength" : 46752,
            "byteOffset" : 505620
        },
        {
            "buffer" : 0,
            "byteLength" : 46752,
            "byteOffset" : 552372
        },
        {
            "buffer" : 0,
            "byteLength" : 31168,
            "byteOffset" : 599124
        },
        {
            "buffer" : 0,
            "byteLength" : 11052,
            "byteOffset" : 630292
        },
        {
            "buffer" : 0,
            "byteLength" : 2758,
            "byteOffset" : 641344
        }
    ],
    "samplers" : [
        {
            "magFilter" : 9729,
            "minFilter" : 9987
        }
    ],
    "buffers" : [
        {
            "byteLength" : 644104,
            "uri" : "data:application/octet-stream;base64,"
        }
    ]
}
