{
    "asset" : {
        "generator" : "Khronos glTF Blender I/O v3.2.43",
        "version" : "2.0"
    },
    "scene" : 2,
    "scenes" : [
        {
            "name" : "event",
            "nodes" : [
                0
            ]
        },
        {
            "name" : "retry meny",
            "nodes" : [
                1
            ]
        },
        {
            "name" : "test lvl",
            "nodes" : [
                2
            ]
        }
    ],
    "nodes" : [
        {
            "mesh" : 0,
            "name" : "arrows L",
            "rotation" : [
                0,
                0.7071068286895752,
                0,
                0.7071068286895752
            ],
            "scale" : [
                1.4190235137939453,
                1.4190235137939453,
                1.4190235137939453
            ],
            "translation" : [
                -16.68757438659668,
                0,
                6.906949996948242
            ]
        },
        {
            "mesh" : 1,
            "name" : "Retry Button",
            "translation" : [
                0,
                0,
                -0.40966132283210754
            ]
        },
        {
            "mesh" : 2,
            "name" : "sky and shaders",
            "rotation" : [
                0,
                0,
                0.0008397690835408866,
                1
            ],
            "scale" : [
                -1048.8973388671875,
                -1048.8973388671875,
                -1048.8974609375
            ],
            "translation" : [
                -88.59962463378906,
                9.960795402526855,
                -6.556319236755371
            ]
        }
    ],
    "materials" : [
        {
            "doubleSided" : true,
            "name" : "teeth",
            "pbrMetallicRoughness" : {
                "baseColorFactor" : [
                    0.800000011920929,
                    0.7507500052452087,
                    0.5362290143966675,
                    1
                ],
                "metallicFactor" : 0,
                "roughnessFactor" : 0.5
            }
        },
        {
            "doubleSided" : true,
            "name" : "HUD retry",
            "pbrMetallicRoughness" : {
                "baseColorFactor" : [
                    0.800000011920929,
                    0.800000011920929,
                    0.800000011920929,
                    1
                ],
                "metallicFactor" : 0,
                "roughnessFactor" : 0.5
            }
        },
        {
            "doubleSided" : true,
            "name" : "sky",
            "pbrMetallicRoughness" : {
                "baseColorTexture" : {
                    "index" : 0
                },
                "metallicFactor" : 0,
                "roughnessFactor" : 0.5
            }
        }
    ],
    "meshes" : [
        {
            "name" : "arrows L",
            "primitives" : [
                {
                    "attributes" : {
                        "POSITION" : 0,
                        "NORMAL" : 1,
                        "TEXCOORD_0" : 2
                    },
                    "indices" : 3,
                    "material" : 0
                }
            ]
        },
        {
            "name" : "Retry Button",
            "primitives" : [
                {
                    "attributes" : {
                        "POSITION" : 4,
                        "NORMAL" : 5,
                        "TEXCOORD_0" : 6
                    },
                    "indices" : 7,
                    "material" : 1
                }
            ]
        },
        {
            "name" : "sky",
            "primitives" : [
                {
                    "attributes" : {
                        "POSITION" : 8,
                        "NORMAL" : 9,
                        "TEXCOORD_0" : 10
                    },
                    "indices" : 11,
                    "material" : 2
                }
            ]
        }
    ],
    "textures" : [
        {
            "sampler" : 0,
            "source" : 0
        }
    ],
    "images" : [
        {
            "bufferView" : 12,
            "mimeType" : "image/png",
            "name" : "SkySphere"
        }
    ],
    "accessors" : [
        {
            "bufferView" : 0,
            "componentType" : 5126,
            "count" : 28,
            "max" : [
                1.2930558919906616,
                -0.38375145196914673,
                -2.617375612258911
            ],
            "min" : [
                -1.2930546998977661,
                -0.46078991889953613,
                -5.447652816772461
            ],
            "type" : "VEC3"
        },
        {
            "bufferView" : 1,
            "componentType" : 5126,
            "count" : 28,
            "type" : "VEC3"
        },
        {
            "bufferView" : 2,
            "componentType" : 5126,
            "count" : 28,
            "type" : "VEC2"
        },
        {
            "bufferView" : 3,
            "componentType" : 5123,
            "count" : 42,
            "type" : "SCALAR"
        },
        {
            "bufferView" : 4,
            "componentType" : 5126,
            "count" : 4,
            "max" : [
                0.5912275910377502,
                0.005179209169000387,
                0.2269800901412964
            ],
            "min" : [
                -0.5912275910377502,
                0.005179209169000387,
                -0.2269800305366516
            ],
            "type" : "VEC3"
        },
        {
            "bufferView" : 5,
            "componentType" : 5126,
            "count" : 4,
            "type" : "VEC3"
        },
        {
            "bufferView" : 6,
            "componentType" : 5126,
            "count" : 4,
            "type" : "VEC2"
        },
        {
            "bufferView" : 7,
            "componentType" : 5123,
            "count" : 6,
            "type" : "SCALAR"
        },
        {
            "bufferView" : 8,
            "componentType" : 5126,
            "count" : 1184,
            "max" : [
                0.2810918092727661,
                0.03138352930545807,
                0.23764440417289734
            ],
            "min" : [
                -0.3857657015323639,
                -0.3384295701980591,
                -0.23764418065547943
            ],
            "type" : "VEC3"
        },
        {
            "bufferView" : 9,
            "componentType" : 5126,
            "count" : 1184,
            "type" : "VEC3"
        },
        {
            "bufferView" : 10,
            "componentType" : 5126,
            "count" : 1184,
            "type" : "VEC2"
        },
        {
            "bufferView" : 11,
            "componentType" : 5123,
            "count" : 1728,
            "type" : "SCALAR"
        }
    ],
    "bufferViews" : [
        {
            "buffer" : 0,
            "byteLength" : 336,
            "byteOffset" : 0
        },
        {
            "buffer" : 0,
            "byteLength" : 336,
            "byteOffset" : 336
        },
        {
            "buffer" : 0,
            "byteLength" : 224,
            "byteOffset" : 672
        },
        {
            "buffer" : 0,
            "byteLength" : 84,
            "byteOffset" : 896
        },
        {
            "buffer" : 0,
            "byteLength" : 48,
            "byteOffset" : 980
        },
        {
            "buffer" : 0,
            "byteLength" : 48,
            "byteOffset" : 1028
        },
        {
            "buffer" : 0,
            "byteLength" : 32,
            "byteOffset" : 1076
        },
        {
            "buffer" : 0,
            "byteLength" : 12,
            "byteOffset" : 1108
        },
        {
            "buffer" : 0,
            "byteLength" : 14208,
            "byteOffset" : 1120
        },
        {
            "buffer" : 0,
            "byteLength" : 14208,
            "byteOffset" : 15328
        },
        {
            "buffer" : 0,
            "byteLength" : 9472,
            "byteOffset" : 29536
        },
        {
            "buffer" : 0,
            "byteLength" : 3456,
            "byteOffset" : 39008
        },
        {
            "buffer" : 0,
            "byteLength" : 216204,
            "byteOffset" : 42464
        }
    ],
    "samplers" : [
        {
            "magFilter" : 9729,
            "minFilter" : 9987
        }
    ],
    "buffers" : [
        {
            "byteLength" : 258668,
            "uri" : "data:application/octet-stream;base64,"
        }
    ]
}
